<?xml version="1.0" encoding="utf-8"?>
<!-- Generator: Adobe Illustrator 25.1.0, SVG Export Plug-In . SVG Version: 6.00 Build 0)  -->
<svg version="1.1" id="Laag_1" xmlns="http://www.w3.org/2000/svg" xmlns:xlink="http://www.w3.org/1999/xlink" x="0px" y="0px"
	 viewBox="0 0 510 236" style="enable-background:new 0 0 510 236;" xml:space="preserve">
<style type="text/css">
	.st0{fill:#FFFFFF;}
</style>
<g>
	<path class="st0" d="M44.5,88.7c0,1.3,0.5,2.2,1.6,2.8c1.1,0.6,2.3,0.9,3.6,0.9c1.3,0,2.6-0.3,3.6-0.9c1.1-0.6,1.6-1.6,1.6-2.8V4.4
		c0-1.3-0.5-2.2-1.6-2.8c-1.1-0.6-2.3-0.9-3.6-0.9c-1.3,0-2.6,0.3-3.6,0.9c-1.1,0.6-1.6,1.5-1.6,2.8v36.1h-34V4.4
		c0-1.3-0.5-2.2-1.6-2.8C7.8,1,6.6,0.8,5.3,0.8C3.9,0.8,2.7,1,1.6,1.6C0.5,2.2,0,3.1,0,4.4v84.3c0,1.3,0.5,2.2,1.6,2.8
		c1.1,0.6,2.3,0.9,3.6,0.9c1.3,0,2.5-0.3,3.6-0.9c1.1-0.6,1.6-1.6,1.6-2.8V49.3h34V88.7z"/>
	<path class="st0" d="M117.3,91c3.3-1,6.2-2.5,8.7-4.7c2.5-2.2,4.4-5,5.8-8.5c1.4-3.5,2.1-7.7,2.1-12.7V27.3c0-5-0.7-9.3-2.1-12.7
		c-1.4-3.5-3.3-6.3-5.8-8.5c-2.5-2.2-5.4-3.7-8.7-4.7c-3.3-1-6.8-1.4-10.6-1.4c-3.8,0-7.3,0.5-10.6,1.4c-3.3,1-6.2,2.5-8.6,4.7
		c-2.4,2.2-4.3,5-5.7,8.5c-1.4,3.5-2.1,7.7-2.1,12.7v37.8c0,5,0.7,9.3,2.1,12.7c1.4,3.5,3.3,6.3,5.7,8.5c2.4,2.2,5.3,3.7,8.6,4.7
		c3.3,1,6.8,1.4,10.6,1.4C110.4,92.4,113.9,92,117.3,91 M123.2,65.1c0,6.1-1.5,10.6-4.4,13.5c-2.9,2.9-7,4.3-12.2,4.3
		c-5.2,0-9.2-1.4-12.1-4.3c-2.9-2.9-4.3-7.4-4.3-13.5V27.3c0-6.1,1.4-10.6,4.3-13.5c2.9-2.9,6.9-4.3,12.1-4.3
		c5.2,0,9.2,1.4,12.2,4.3c2.9,2.9,4.4,7.4,4.4,13.5V65.1z"/>
	<path class="st0" d="M205.3,92.4c1.2,0,2-0.5,2.6-1.5c0.5-1,0.8-2.1,0.8-3.3c0-1.2-0.3-2.3-0.8-3.3c-0.5-1-1.4-1.5-2.6-1.5h-34.2
		V4.4c0-1.3-0.5-2.2-1.6-2.8c-1.1-0.6-2.3-0.9-3.6-0.9s-2.6,0.3-3.6,0.9c-1.1,0.6-1.6,1.5-1.6,2.8v84.3c0,1.3,0.5,2.2,1.5,2.8
		c1,0.6,2.1,0.9,3.3,0.9H205.3z"/>
	<path class="st0" d="M273.7,92.4c1.2,0,2-0.5,2.6-1.5c0.5-1,0.8-2.1,0.8-3.3c0-1.2-0.3-2.3-0.8-3.3c-0.5-1-1.4-1.5-2.6-1.5h-34.2
		V4.4c0-1.3-0.5-2.2-1.6-2.8c-1.1-0.6-2.3-0.9-3.6-0.9c-1.3,0-2.6,0.3-3.6,0.9c-1.1,0.6-1.6,1.5-1.6,2.8v84.3c0,1.3,0.5,2.2,1.5,2.8
		c1,0.6,2.1,0.9,3.3,0.9H273.7z"/>
	<path class="st0" d="M353.7,88.4c0-0.2-0.1-0.5-0.2-1L333.2,5.1c-0.3-1.3-0.9-2.5-2.1-3.2c-1.2-0.7-1.9-0.8-4.2-0.8L316,1
		c-2.3,0-2.9,0.2-4.2,0.8c-1.2,0.7-1.8,1.9-2.1,3.2l-20.3,82.3c-0.1,0.5-0.2,0.9-0.2,1c0.1,1.3,0.9,2.4,2.3,3.1
		c1.5,0.7,2.9,1,4.3,0.9c2.1-0.1,3.3-1,3.7-2.6l5.1-22.5l33.5,0l5.1,22.5c0.4,1.6,1.7,2.5,3.7,2.6c1.4,0.1,2.9-0.2,4.3-0.9
		C352.8,90.8,353.6,89.8,353.7,88.4 M336.3,58.7l-29.8,0l12-48.8l5.7,0L336.3,58.7z"/>
	<path class="st0" d="M427.9,91.5c1.1-0.6,1.6-1.6,1.6-2.8V4.4c0-1.3-0.5-2.2-1.6-2.8c-1.1-0.6-2.3-0.9-3.6-0.9s-2.6,0.3-3.6,0.9
		c-1.1,0.6-1.6,1.5-1.6,2.8v64.1L387.8,7.4c-1.2-2.2-2.3-3.8-3.5-5c-1.1-1.1-2.7-1.7-4.6-1.7c-1.4,0-2.7,0.3-3.7,0.8
		c-1,0.5-1.6,1.5-1.6,2.8v84.3c0,1.3,0.5,2.2,1.6,2.8c1.1,0.6,2.3,0.9,3.6,0.9c1.3,0,2.5-0.3,3.6-0.9c1.1-0.6,1.6-1.6,1.6-2.8V24.6
		l32.6,63.1c0.8,1.4,1.7,2.6,2.8,3.5c1.1,0.9,2.4,1.3,3.8,1.3C425.6,92.4,426.8,92.1,427.9,91.5"/>
	<path class="st0" d="M460.6,0.8c-1.4,0-2.6,0.4-3.5,1.1c-0.9,0.8-1.3,1.6-1.3,2.5v84.4c0,0.9,0.4,1.8,1.3,2.5
		c0.9,0.8,2,1.1,3.5,1.1h22.2c3.8,0,7.3-0.5,10.6-1.4c3.3-1,6.2-2.5,8.7-4.7c2.5-2.2,4.4-5,5.8-8.5c1.4-3.5,2.1-7.7,2.1-12.7v-37
		c0-5-0.7-9.3-2.1-12.7c-1.4-3.5-3.3-6.3-5.8-8.5c-2.5-2.2-5.4-3.7-8.7-4.7c-3.3-1-6.8-1.4-10.6-1.4H460.6z M482.8,10.3
		c5.2,0,9.2,1.4,12.2,4.3c2.9,2.9,4.4,7.4,4.4,13.5v37c0,6.1-1.5,10.6-4.4,13.5c-2.9,2.9-7,4.3-12.2,4.3h-16.4V10.3H482.8z"/>
	<path class="st0" d="M0,219.1c0,0.9,0.4,1.7,1.3,2.5c0.9,0.8,2,1.1,3.5,1.1h24.5c3.5,0,6.8-0.5,9.8-1.4c3-0.9,5.6-2.4,7.8-4.4
		c2.2-2,4-4.7,5.3-8.1c1.3-3.3,1.9-7.4,1.9-12.1v-2.3c0-3.2-0.3-5.9-0.9-8.3c-0.6-2.3-1.5-4.3-2.6-6c-1.1-1.7-2.5-3.1-4.1-4.2
		c-1.6-1.1-3.3-2.1-5.3-2.8c3.3-1.4,5.9-3.9,7.8-7.4c1.9-3.5,2.9-7.9,2.9-13.1c0-4.3-0.7-7.9-2.1-10.7c-1.4-2.8-3.2-5-5.5-6.6
		c-2.3-1.6-5-2.7-8.1-3.3c-3.1-0.6-6.4-0.9-9.8-0.9H4.8c-1.2,0-2.3,0.3-3.3,0.9c-1,0.6-1.5,1.6-1.5,2.8V219.1z M10.5,213.2v-35.6
		h16.9c5,0,8.9,1.2,11.8,3.7c2.8,2.5,4.3,6.7,4.3,12.7v2.1c0,6-1.4,10.4-4.3,13.1c-2.8,2.7-6.8,4.1-11.8,4.1H10.5z M10.5,140.8h15.3
		c2.3,0,4.3,0.2,6.3,0.7c1.9,0.5,3.6,1.2,4.9,2.2c1.3,1,2.4,2.4,3.1,4.1c0.8,1.7,1.1,3.8,1.1,6.3c0,5.2-1.2,9-3.7,11.3
		c-2.5,2.3-6.3,3.4-11.4,3.4H10.5V140.8z"/>
	<path class="st0" d="M133.2,218.7c0-0.2-0.1-0.5-0.2-1l-20.3-82.3c-0.3-1.3-0.9-2.5-2.1-3.2c-1.2-0.7-1.9-0.8-4.2-0.8l-10.9,0
		c-2.3,0-3,0.2-4.2,0.8c-1.2,0.7-1.8,1.9-2.1,3.2l-20.3,82.3c-0.1,0.5-0.2,0.9-0.2,1c0.1,1.3,0.9,2.4,2.3,3.1c1.5,0.7,2.9,1,4.3,0.9
		c2.1-0.1,3.3-1,3.7-2.6l5.1-22.5l33.5,0l5.1,22.5c0.4,1.6,1.7,2.5,3.7,2.6c1.4,0.1,2.9-0.2,4.3-0.9
		C132.4,221.1,133.1,220,133.2,218.7 M115.8,189l-29.8,0l12-48.8h5.7L115.8,189z"/>
	<path class="st0" d="M152,218.7c0,1.3,0.5,2.2,1.6,2.8c1.1,0.6,2.3,0.9,3.6,0.9c1.3,0,2.5-0.3,3.6-0.9c1.1-0.6,1.6-1.6,1.6-2.8
		v-36.8h14.4l18.9,36.6c0.6,1.1,1.3,2,2,2.9c0.8,0.8,1.7,1.2,2.8,1.2c1.5,0,2.9-0.5,4.3-1.6c1.3-1.1,2-2.3,2-3.8
		c0-0.6-0.2-1.2-0.5-1.8l-18.6-35.1c2.6-0.5,5-1.4,7.3-2.6c2.3-1.2,4.3-2.8,6-4.8c1.7-2,3-4.3,4-7.1c1-2.8,1.4-6.1,1.4-9.9
		c0-4.8-0.7-8.7-2.2-11.9c-1.5-3.2-3.5-5.8-6-7.7c-2.6-1.9-5.5-3.3-8.9-4.1c-3.4-0.8-7-1.2-10.7-1.2h-23c-1.2,0.1-2.1,0.5-2.8,1.2
		c-0.7,0.7-1,1.5-1,2.4V218.7z M178.7,140.6c5.2,0,9.4,1.3,12.5,3.7c3.2,2.5,4.8,6.7,4.8,12.5c0,5.9-1.6,10.1-4.8,12.6
		c-3.2,2.5-7.4,3.8-12.5,3.8h-16.2v-32.6H178.7z"/>
	<path class="st0" d="M262,221.3c3.3-1,6.2-2.5,8.7-4.7c2.5-2.2,4.4-5,5.8-8.4c1.4-3.5,2.1-7.7,2.1-12.7v-37.6c0-5-0.7-9.2-2.1-12.7
		c-1.4-3.5-3.3-6.3-5.8-8.4c-2.5-2.2-5.4-3.7-8.7-4.7c-3.3-1-6.8-1.4-10.6-1.4c-3.8,0-7.3,0.5-10.6,1.4c-3.3,1-6.2,2.5-8.6,4.7
		c-2.4,2.2-4.3,5-5.7,8.4c-1.4,3.5-2.1,7.7-2.1,12.7v37.6c0,5,0.7,9.2,2.1,12.7c1.4,3.5,3.3,6.3,5.7,8.4c2.4,2.2,5.3,3.7,8.6,4.7
		c3.3,1,6.8,1.4,10.6,1.4C255.1,222.7,258.7,222.2,262,221.3 M267.9,195.4c0,6.1-1.5,10.6-4.4,13.4c-2.9,2.9-7,4.3-12.2,4.3
		c-5.2,0-9.2-1.4-12.1-4.3c-2.9-2.9-4.3-7.4-4.3-13.4v-37.6c0-6.1,1.4-10.6,4.3-13.4c2.9-2.9,6.9-4.3,12.1-4.3
		c5.2,0,9.2,1.4,12.2,4.3c2.9,2.9,4.4,7.4,4.4,13.4V195.4z"/>
	<path class="st0" d="M422.9,195.4c0,6.1-1.5,10.6-4.5,13.4c-3,2.9-7.1,4.3-12.4,4.3c-5.3,0-9.4-1.4-12.4-4.3
		c-3-2.9-4.5-7.4-4.5-13.4v-61.3c0-1.3-0.5-2.2-1.6-2.8c-1.1-0.6-2.3-0.9-3.6-0.9c-1.3,0-2.6,0.3-3.6,0.9c-1.1,0.6-1.6,1.5-1.6,2.8
		v61.3c0,5,0.7,9.2,2.1,12.7c1.4,3.5,3.3,6.3,5.8,8.4c2.4,2.2,5.3,3.7,8.7,4.7c3.3,1,6.9,1.4,10.8,1.4c3.8,0,7.4-0.5,10.8-1.4
		c3.3-1,6.3-2.5,8.7-4.7c2.5-2.2,4.4-5,5.8-8.4c1.4-3.5,2.1-7.7,2.1-12.7v-61.3c0-1.3-0.6-2.2-1.7-2.8c-1.1-0.6-2.3-0.9-3.6-0.9
		c-1.4,0-2.7,0.3-3.7,0.9c-1,0.6-1.6,1.5-1.6,2.8V195.4z"/>
	<path class="st0" d="M467.5,140.7h38.9c1.2,0,2.1-0.5,2.7-1.4c0.6-1,0.9-2.1,0.9-3.4c0-1.2-0.3-2.2-0.9-3.2c-0.6-1-1.5-1.4-2.8-1.4
		h-44.7c-1.2,0-2.3,0.3-3.3,0.9c-1,0.6-1.5,1.6-1.5,2.8v84c0,1.3,0.5,2.2,1.5,2.8c1,0.6,2.1,0.9,3.3,0.9h44.7c1.3,0,2.2-0.5,2.8-1.4
		c0.6-1,0.9-2,0.9-3.2c0-1.3-0.3-2.5-0.9-3.4c-0.6-1-1.5-1.4-2.7-1.4h-38.9v-31.9h33.2c1.3,0,2.2-0.5,2.8-1.4
		c0.6-0.9,0.9-1.9,0.9-2.9c0-1.2-0.3-2.2-0.9-3.1c-0.6-0.9-1.5-1.4-2.7-1.4h-33.2V140.7z"/>
	<path class="st0" d="M345,195.6c0,5.3-1.1,9.3-3.3,12.1c-2.2,2.8-5.3,4.5-9.3,5.1v-8.4c0-1.3-0.4-2.2-1.2-2.8
		c-0.8-0.6-1.7-0.9-2.6-0.9c-0.9,0-1.8,0.3-2.6,0.9c-0.8,0.6-1.2,1.5-1.2,2.8v8.5c-4.1-0.7-7.3-2.4-9.5-5.2
		c-2.2-2.8-3.3-6.8-3.3-12.1v-37.8c0-6.1,1.4-10.6,4.3-13.5c2.9-2.9,6.9-4.3,12.1-4.3c5.2,0,9.2,1.4,12.2,4.3
		c2.9,2.9,4.4,7.4,4.4,13.5V195.6z M331.2,235c0.8-0.6,1.2-1.6,1.2-2.8v-9.4c3.3-0.3,6.4-0.9,9.2-2.1c2.8-1.1,5.2-2.8,7.3-5
		c2.1-2.2,3.7-4.9,4.9-8.2c1.2-3.3,1.8-7.3,1.8-11.9v-37.8c0-5-0.7-9.3-2.1-12.7c-1.4-3.5-3.3-6.3-5.8-8.5c-2.5-2.2-5.4-3.7-8.7-4.7
		c-3.3-1-6.8-1.4-10.6-1.4c-3.8,0-7.3,0.5-10.6,1.4c-3.3,1-6.2,2.5-8.6,4.7c-2.4,2.2-4.3,5-5.7,8.5c-1.4,3.5-2.1,7.7-2.1,12.7v37.8
		c0,4.6,0.6,8.5,1.8,11.9c1.2,3.3,2.8,6,4.9,8.2c2.1,2.2,4.6,3.8,7.4,5c2.8,1.1,5.9,1.8,9.3,2.1v9.4c0,1.3,0.4,2.2,1.2,2.8
		c0.8,0.6,1.7,0.9,2.6,0.9C329.5,235.9,330.4,235.6,331.2,235"/>
</g>
</svg>
